<svg width="269" height="313" viewBox="0 0 269 313" fill="none" xmlns="http://www.w3.org/2000/svg">
<rect x="0.5" y="1.13477" width="268" height="310.535" rx="11.5" fill="white"/>
<rect x="0.5" y="1.13477" width="268" height="310.535" rx="11.5" stroke="#CCCCCC"/>
<g clip-path="url(#clip0_1088_13294)">
<path d="M159.715 53.6863H109.327C108.178 53.6877 107.078 54.1445 106.266 54.9564C105.454 55.7684 104.997 56.8692 104.996 58.0174V170.006L104.418 170.182L92.057 173.968C91.4712 174.146 90.8384 174.085 90.2976 173.798C89.7568 173.51 89.3522 173.02 89.1726 172.434L52.404 52.3321C52.2251 51.7463 52.2861 51.1134 52.5736 50.5725C52.8611 50.0316 53.3516 49.627 53.9373 49.4476L72.9856 43.615L128.208 26.712L147.256 20.8794C147.546 20.7902 147.85 20.759 148.152 20.7877C148.454 20.8163 148.748 20.9042 149.016 21.0464C149.283 21.1885 149.521 21.3821 149.714 21.616C149.907 21.85 150.052 22.1197 150.14 22.4097L159.539 53.1088L159.715 53.6863Z" fill="#F2F2F2"/>
<path d="M170.711 53.109L159.384 16.1095C159.195 15.4931 158.887 14.9197 158.477 14.4224C158.067 13.925 157.563 13.5133 156.993 13.2109C156.424 12.9084 155.801 12.7211 155.159 12.6596C154.517 12.5981 153.87 12.6637 153.254 12.8525L126.473 21.0499L71.2537 37.9558L44.4728 46.1561C43.2287 46.5381 42.187 47.3981 41.5764 48.5474C40.9657 49.6967 40.836 51.0413 41.2157 52.2861L79.9303 178.735C80.2388 179.74 80.8612 180.619 81.7062 181.245C82.5511 181.87 83.5742 182.208 84.6253 182.209C85.1118 182.209 85.5956 182.136 86.0603 181.992L104.419 176.373L104.996 176.194V175.591L104.419 175.767L85.89 181.441C84.7919 181.775 83.6058 181.661 82.5919 181.122C81.5781 180.584 80.8192 179.665 80.4819 178.568L41.7702 52.1157C41.6031 51.572 41.5448 51.0006 41.5988 50.4343C41.6528 49.8681 41.8179 49.318 42.0848 48.8157C42.3516 48.3133 42.715 47.8685 43.154 47.5068C43.593 47.145 44.099 46.8734 44.6431 46.7076L71.424 38.5073L126.643 21.6043L153.424 13.404C153.837 13.2781 154.266 13.2139 154.697 13.2135C155.623 13.2155 156.524 13.5141 157.268 14.0654C158.012 14.6167 158.56 15.3917 158.832 16.277L170.107 53.109L170.287 53.6865H170.887L170.711 53.109Z" fill="#3F3D56"/>
<path d="M76.423 49.5418C75.8665 49.5414 75.3247 49.3627 74.8772 49.0318C74.4297 48.701 74.1001 48.2354 73.9365 47.7035L70.2174 35.5556C70.1175 35.2293 70.0828 34.8865 70.1154 34.5468C70.1479 34.207 70.2471 33.8771 70.4072 33.5757C70.5673 33.2743 70.7852 33.0074 71.0485 32.7902C71.3118 32.5731 71.6152 32.4099 71.9416 32.3101L122.743 16.7573C123.402 16.5562 124.113 16.6248 124.722 16.948C125.331 17.2712 125.786 17.8227 125.988 18.4813L129.707 30.6293C129.908 31.2884 129.84 32.0002 129.517 32.6087C129.193 33.2171 128.642 33.6726 127.983 33.875L77.1822 49.4278C76.9362 49.5033 76.6803 49.5417 76.423 49.5418Z" fill="#6C63FF"/>
<path d="M95.9052 25.6151C99.0946 25.6151 101.68 23.0296 101.68 19.8403C101.68 16.6509 99.0946 14.0654 95.9052 14.0654C92.7159 14.0654 90.1304 16.6509 90.1304 19.8403C90.1304 23.0296 92.7159 25.6151 95.9052 25.6151Z" fill="#6C63FF"/>
<path d="M95.9053 23.4967C97.9249 23.4967 99.5622 21.8595 99.5622 19.8399C99.5622 17.8203 97.9249 16.1831 95.9053 16.1831C93.8857 16.1831 92.2485 17.8203 92.2485 19.8399C92.2485 21.8595 93.8857 23.4967 95.9053 23.4967Z" fill="white"/>
<path d="M215.007 180.733H117.412C116.761 180.732 116.137 180.473 115.677 180.013C115.217 179.553 114.958 178.929 114.958 178.279V61.3381C114.958 60.6874 115.217 60.0636 115.677 59.6034C116.137 59.1433 116.761 58.8845 117.412 58.8838H215.007C215.657 58.8845 216.281 59.1434 216.741 59.6035C217.201 60.0636 217.46 60.6874 217.461 61.3381V178.279C217.46 178.929 217.201 179.553 216.741 180.013C216.281 180.473 215.657 180.732 215.007 180.733Z" fill="#E6E6E6"/>
<path d="M170.107 53.1089H109.327C108.026 53.1107 106.778 53.6285 105.858 54.5486C104.938 55.4688 104.42 56.7162 104.418 58.0175V175.767L104.996 175.59V58.0175C104.997 56.8692 105.454 55.7684 106.266 54.9565C107.078 54.1445 108.179 53.6878 109.327 53.6864H170.286L170.107 53.1089ZM223.092 53.1089H109.327C108.026 53.1107 106.778 53.6285 105.858 54.5486C104.938 55.4688 104.42 56.7162 104.418 58.0175V190.261C104.42 191.563 104.938 192.81 105.858 193.73C106.778 194.651 108.026 195.168 109.327 195.17H223.092C224.393 195.168 225.64 194.651 226.56 193.73C227.481 192.81 227.998 191.563 228 190.261V58.0175C227.998 56.7162 227.481 55.4688 226.56 54.5486C225.64 53.6285 224.393 53.1107 223.092 53.1089ZM227.423 190.261C227.421 191.41 226.965 192.511 226.153 193.323C225.341 194.134 224.24 194.591 223.092 194.593H109.327C108.179 194.591 107.078 194.134 106.266 193.323C105.454 192.511 104.997 191.41 104.996 190.261V58.0175C104.997 56.8692 105.454 55.7684 106.266 54.9565C107.078 54.1445 108.179 53.6878 109.327 53.6864H223.092C224.24 53.6878 225.341 54.1445 226.153 54.9565C226.965 55.7684 227.421 56.8692 227.423 58.0175V190.261Z" fill="#3F3D56"/>
<path d="M192.774 65.8136H139.645C138.956 65.8129 138.296 65.5388 137.808 65.0517C137.321 64.5645 137.047 63.9039 137.046 63.215V50.5103C137.047 49.8213 137.321 49.1608 137.808 48.6736C138.296 48.1864 138.956 47.9124 139.645 47.9116H192.774C193.463 47.9124 194.123 48.1864 194.61 48.6736C195.098 49.1608 195.372 49.8213 195.372 50.5103V63.215C195.372 63.9039 195.098 64.5645 194.61 65.0517C194.123 65.5388 193.463 65.8129 192.774 65.8136Z" fill="#6C63FF"/>
<path d="M166.209 48.7777C169.398 48.7777 171.984 46.1922 171.984 43.0029C171.984 39.8135 169.398 37.228 166.209 37.228C163.02 37.228 160.434 39.8135 160.434 43.0029C160.434 46.1922 163.02 48.7777 166.209 48.7777Z" fill="#6C63FF"/>
<path d="M166.209 46.5202C168.152 46.5202 169.727 44.9454 169.727 43.0028C169.727 41.0602 168.152 39.4854 166.209 39.4854C164.267 39.4854 162.692 41.0602 162.692 43.0028C162.692 44.9454 164.267 46.5202 166.209 46.5202Z" fill="white"/>
</g>
<path d="M73.902 253.17H70.542L62.934 241.674V253.17H59.574V236.394H62.934L70.542 247.914V236.394H73.902V253.17ZM83.1264 253.386C81.8464 253.386 80.6944 253.106 79.6704 252.546C78.6464 251.97 77.8384 251.162 77.2464 250.122C76.6704 249.082 76.3824 247.882 76.3824 246.522C76.3824 245.162 76.6784 243.962 77.2704 242.922C77.8784 241.882 78.7024 241.082 79.7424 240.522C80.7824 239.946 81.9424 239.658 83.2224 239.658C84.5024 239.658 85.6624 239.946 86.7024 240.522C87.7424 241.082 88.5584 241.882 89.1504 242.922C89.7584 243.962 90.0624 245.162 90.0624 246.522C90.0624 247.882 89.7504 249.082 89.1264 250.122C88.5184 251.162 87.6864 251.97 86.6304 252.546C85.5904 253.106 84.4224 253.386 83.1264 253.386ZM83.1264 250.458C83.7344 250.458 84.3024 250.314 84.8304 250.026C85.3744 249.722 85.8064 249.274 86.1264 248.682C86.4464 248.09 86.6064 247.37 86.6064 246.522C86.6064 245.258 86.2704 244.29 85.5984 243.618C84.9424 242.93 84.1344 242.586 83.1744 242.586C82.2144 242.586 81.4064 242.93 80.7504 243.618C80.1104 244.29 79.7904 245.258 79.7904 246.522C79.7904 247.786 80.1024 248.762 80.7264 249.45C81.3664 250.122 82.1664 250.458 83.1264 250.458ZM109.646 236.418V239.13H105.182V253.17H101.822V239.13H97.3578V236.418H109.646ZM111.233 246.474C111.233 245.13 111.497 243.938 112.025 242.898C112.569 241.858 113.297 241.058 114.209 240.498C115.137 239.938 116.169 239.658 117.305 239.658C118.297 239.658 119.161 239.858 119.897 240.258C120.649 240.658 121.249 241.162 121.697 241.77V239.874H125.081V253.17H121.697V251.226C121.265 251.85 120.665 252.37 119.897 252.786C119.145 253.186 118.273 253.386 117.281 253.386C116.161 253.386 115.137 253.098 114.209 252.522C113.297 251.946 112.569 251.138 112.025 250.098C111.497 249.042 111.233 247.834 111.233 246.474ZM121.697 246.522C121.697 245.706 121.537 245.01 121.217 244.434C120.897 243.842 120.465 243.394 119.921 243.09C119.377 242.77 118.793 242.61 118.169 242.61C117.545 242.61 116.969 242.762 116.441 243.066C115.913 243.37 115.481 243.818 115.145 244.41C114.825 244.986 114.665 245.674 114.665 246.474C114.665 247.274 114.825 247.978 115.145 248.586C115.481 249.178 115.913 249.634 116.441 249.954C116.985 250.274 117.561 250.434 118.169 250.434C118.793 250.434 119.377 250.282 119.921 249.978C120.465 249.658 120.897 249.21 121.217 248.634C121.537 248.042 121.697 247.338 121.697 246.522ZM133.451 253.386C132.363 253.386 131.387 253.194 130.523 252.81C129.659 252.41 128.971 251.874 128.459 251.202C127.963 250.53 127.691 249.786 127.643 248.97H131.027C131.091 249.482 131.339 249.906 131.771 250.242C132.219 250.578 132.771 250.746 133.427 250.746C134.067 250.746 134.563 250.618 134.915 250.362C135.283 250.106 135.467 249.778 135.467 249.378C135.467 248.946 135.243 248.626 134.795 248.418C134.363 248.194 133.667 247.954 132.707 247.698C131.715 247.458 130.899 247.21 130.259 246.954C129.635 246.698 129.091 246.306 128.627 245.778C128.179 245.25 127.955 244.538 127.955 243.642C127.955 242.906 128.163 242.234 128.579 241.626C129.011 241.018 129.619 240.538 130.403 240.186C131.203 239.834 132.139 239.658 133.211 239.658C134.795 239.658 136.059 240.058 137.003 240.858C137.947 241.642 138.467 242.706 138.563 244.05H135.347C135.299 243.522 135.075 243.106 134.675 242.802C134.291 242.482 133.771 242.322 133.115 242.322C132.507 242.322 132.035 242.434 131.699 242.658C131.379 242.882 131.219 243.194 131.219 243.594C131.219 244.042 131.443 244.386 131.891 244.626C132.339 244.85 133.035 245.082 133.979 245.322C134.939 245.562 135.731 245.81 136.355 246.066C136.979 246.322 137.515 246.722 137.963 247.266C138.427 247.794 138.667 248.498 138.683 249.378C138.683 250.146 138.467 250.834 138.035 251.442C137.619 252.05 137.011 252.53 136.211 252.882C135.427 253.218 134.507 253.386 133.451 253.386ZM149.313 253.17L144.801 247.506V253.17H141.441V235.41H144.801V245.514L149.265 239.874H153.633L147.777 246.546L153.681 253.17H149.313ZM173.896 239.874L165.664 259.458H162.088L164.968 252.834L159.64 239.874H163.408L166.84 249.162L170.32 239.874H173.896ZM188.067 246.234C188.067 246.714 188.035 247.146 187.971 247.53H178.251C178.331 248.49 178.667 249.242 179.259 249.786C179.851 250.33 180.579 250.602 181.443 250.602C182.691 250.602 183.579 250.066 184.107 248.994H187.731C187.347 250.274 186.611 251.33 185.523 252.162C184.435 252.978 183.099 253.386 181.515 253.386C180.235 253.386 179.083 253.106 178.059 252.546C177.051 251.97 176.259 251.162 175.683 250.122C175.123 249.082 174.843 247.882 174.843 246.522C174.843 245.146 175.123 243.938 175.683 242.898C176.243 241.858 177.027 241.058 178.035 240.498C179.043 239.938 180.203 239.658 181.515 239.658C182.779 239.658 183.907 239.93 184.899 240.474C185.907 241.018 186.683 241.794 187.227 242.802C187.787 243.794 188.067 244.938 188.067 246.234ZM184.587 245.274C184.571 244.41 184.259 243.722 183.651 243.21C183.043 242.682 182.299 242.418 181.419 242.418C180.587 242.418 179.883 242.674 179.307 243.186C178.747 243.682 178.403 244.378 178.275 245.274H184.587ZM194.431 242.634V249.066C194.431 249.514 194.535 249.842 194.743 250.05C194.967 250.242 195.335 250.338 195.847 250.338H197.407V253.17H195.295C192.463 253.17 191.047 251.794 191.047 249.042V242.634H189.463V239.874H191.047V236.586H194.431V239.874H197.407V242.634H194.431ZM204.504 235.842C206.168 235.842 207.504 236.298 208.512 237.21C209.536 238.106 210.048 239.346 210.048 240.93C210.048 242.498 209.544 243.698 208.536 244.53C207.528 245.346 206.192 245.754 204.528 245.754L204.432 247.602H201.48L201.36 243.522H202.44C203.832 243.522 204.904 243.338 205.656 242.97C206.408 242.602 206.784 241.93 206.784 240.954C206.784 240.25 206.576 239.69 206.16 239.274C205.76 238.858 205.208 238.65 204.504 238.65C203.768 238.65 203.192 238.85 202.776 239.25C202.376 239.65 202.176 240.202 202.176 240.906H199.008C198.992 239.93 199.2 239.058 199.632 238.29C200.064 237.522 200.696 236.922 201.528 236.49C202.376 236.058 203.368 235.842 204.504 235.842ZM202.944 253.338C202.336 253.338 201.832 253.154 201.432 252.786C201.048 252.402 200.856 251.93 200.856 251.37C200.856 250.81 201.048 250.346 201.432 249.978C201.832 249.594 202.336 249.402 202.944 249.402C203.536 249.402 204.024 249.594 204.408 249.978C204.792 250.346 204.984 250.81 204.984 251.37C204.984 251.93 204.792 252.402 204.408 252.786C204.024 253.154 203.536 253.338 202.944 253.338Z" fill="black"/>
<path d="M43.9876 287.24C43.7169 286.671 43.3249 286.232 42.8116 285.924C42.2982 285.607 41.7009 285.448 41.0196 285.448C40.3382 285.448 39.7222 285.607 39.1716 285.924C38.6302 286.232 38.2009 286.68 37.8836 287.268C37.5756 287.847 37.4216 288.519 37.4216 289.284C37.4216 290.049 37.5756 290.721 37.8836 291.3C38.2009 291.879 38.6302 292.327 39.1716 292.644C39.7222 292.952 40.3382 293.106 41.0196 293.106C41.9716 293.106 42.7556 292.821 43.3716 292.252C43.9876 291.683 44.3469 290.913 44.4496 289.942H40.5576V288.906H45.8076V289.886C45.7329 290.689 45.4809 291.426 45.0516 292.098C44.6222 292.761 44.0576 293.288 43.3576 293.68C42.6576 294.063 41.8782 294.254 41.0196 294.254C40.1142 294.254 39.2882 294.044 38.5416 293.624C37.7949 293.195 37.2022 292.602 36.7636 291.846C36.3342 291.09 36.1196 290.236 36.1196 289.284C36.1196 288.332 36.3342 287.478 36.7636 286.722C37.2022 285.957 37.7949 285.364 38.5416 284.944C39.2882 284.515 40.1142 284.3 41.0196 284.3C42.0556 284.3 42.9702 284.557 43.7636 285.07C44.5662 285.583 45.1496 286.307 45.5136 287.24H43.9876ZM54.4921 290.04C54.4921 290.283 54.4781 290.539 54.4501 290.81H48.3181C48.3647 291.566 48.6214 292.159 49.0881 292.588C49.5641 293.008 50.1381 293.218 50.8101 293.218C51.3607 293.218 51.8181 293.092 52.1821 292.84C52.5554 292.579 52.8167 292.233 52.9661 291.804H54.3381C54.1327 292.541 53.7221 293.143 53.1061 293.61C52.4901 294.067 51.7247 294.296 50.8101 294.296C50.0821 294.296 49.4287 294.133 48.8501 293.806C48.2807 293.479 47.8327 293.017 47.5061 292.42C47.1794 291.813 47.0161 291.113 47.0161 290.32C47.0161 289.527 47.1747 288.831 47.4921 288.234C47.8094 287.637 48.2527 287.179 48.8221 286.862C49.4007 286.535 50.0634 286.372 50.8101 286.372C51.5381 286.372 52.1821 286.531 52.7421 286.848C53.3021 287.165 53.7314 287.604 54.0301 288.164C54.3381 288.715 54.4921 289.34 54.4921 290.04ZM53.1761 289.774C53.1761 289.289 53.0687 288.873 52.8541 288.528C52.6394 288.173 52.3454 287.907 51.9721 287.73C51.6081 287.543 51.2021 287.45 50.7541 287.45C50.1101 287.45 49.5594 287.655 49.1021 288.066C48.6541 288.477 48.3974 289.046 48.3321 289.774H53.1761ZM57.7277 287.548V292.07C57.7277 292.443 57.807 292.709 57.9657 292.868C58.1244 293.017 58.3997 293.092 58.7917 293.092H59.7297V294.17H58.5817C57.8724 294.17 57.3404 294.007 56.9857 293.68C56.631 293.353 56.4537 292.817 56.4537 292.07V287.548H55.4597V286.498H56.4537V284.566H57.7277V286.498H59.7297V287.548H57.7277ZM67.7217 294.296C67.1337 294.296 66.6064 294.198 66.1397 294.002C65.6731 293.797 65.3044 293.517 65.0337 293.162C64.7631 292.798 64.6137 292.383 64.5857 291.916H65.9017C65.9391 292.299 66.1164 292.611 66.4337 292.854C66.7604 293.097 67.1851 293.218 67.7077 293.218C68.1931 293.218 68.5757 293.111 68.8557 292.896C69.1357 292.681 69.2757 292.411 69.2757 292.084C69.2757 291.748 69.1264 291.501 68.8277 291.342C68.5291 291.174 68.0671 291.011 67.4417 290.852C66.8724 290.703 66.4057 290.553 66.0417 290.404C65.6871 290.245 65.3791 290.017 65.1177 289.718C64.8657 289.41 64.7397 289.009 64.7397 288.514C64.7397 288.122 64.8564 287.763 65.0897 287.436C65.3231 287.109 65.6544 286.853 66.0837 286.666C66.5131 286.47 67.0031 286.372 67.5537 286.372C68.4031 286.372 69.0891 286.587 69.6117 287.016C70.1344 287.445 70.4144 288.033 70.4517 288.78H69.1777C69.1497 288.379 68.9864 288.057 68.6877 287.814C68.3984 287.571 68.0064 287.45 67.5117 287.45C67.0544 287.45 66.6904 287.548 66.4197 287.744C66.1491 287.94 66.0137 288.197 66.0137 288.514C66.0137 288.766 66.0931 288.976 66.2517 289.144C66.4197 289.303 66.6251 289.433 66.8677 289.536C67.1197 289.629 67.4651 289.737 67.9037 289.858C68.4544 290.007 68.9024 290.157 69.2477 290.306C69.5931 290.446 69.8871 290.661 70.1297 290.95C70.3817 291.239 70.5124 291.617 70.5217 292.084C70.5217 292.504 70.4051 292.882 70.1717 293.218C69.9384 293.554 69.6071 293.82 69.1777 294.016C68.7577 294.203 68.2724 294.296 67.7217 294.296ZM73.8742 287.548V292.07C73.8742 292.443 73.9535 292.709 74.1122 292.868C74.2709 293.017 74.5462 293.092 74.9382 293.092H75.8762V294.17H74.7282C74.0189 294.17 73.4869 294.007 73.1322 293.68C72.7775 293.353 72.6002 292.817 72.6002 292.07V287.548H71.6062V286.498H72.6002V284.566H73.8742V286.498H75.8762V287.548H73.8742ZM76.9438 290.306C76.9438 289.522 77.1025 288.836 77.4198 288.248C77.7371 287.651 78.1711 287.189 78.7218 286.862C79.2818 286.535 79.9025 286.372 80.5838 286.372C81.2558 286.372 81.8391 286.517 82.3338 286.806C82.8285 287.095 83.1971 287.459 83.4398 287.898V286.498H84.7278V294.17H83.4398V292.742C83.1878 293.19 82.8098 293.563 82.3058 293.862C81.8111 294.151 81.2325 294.296 80.5698 294.296C79.8885 294.296 79.2725 294.128 78.7218 293.792C78.1711 293.456 77.7371 292.985 77.4198 292.378C77.1025 291.771 76.9438 291.081 76.9438 290.306ZM83.4398 290.32C83.4398 289.741 83.3231 289.237 83.0898 288.808C82.8565 288.379 82.5391 288.052 82.1378 287.828C81.7458 287.595 81.3118 287.478 80.8358 287.478C80.3598 287.478 79.9258 287.59 79.5338 287.814C79.1418 288.038 78.8291 288.365 78.5958 288.794C78.3625 289.223 78.2458 289.727 78.2458 290.306C78.2458 290.894 78.3625 291.407 78.5958 291.846C78.8291 292.275 79.1418 292.607 79.5338 292.84C79.9258 293.064 80.3598 293.176 80.8358 293.176C81.3118 293.176 81.7458 293.064 82.1378 292.84C82.5391 292.607 82.8565 292.275 83.0898 291.846C83.3231 291.407 83.4398 290.899 83.4398 290.32ZM88.1547 287.744C88.3787 287.305 88.6961 286.965 89.1067 286.722C89.5267 286.479 90.0354 286.358 90.6327 286.358V287.674H90.2967C88.8687 287.674 88.1547 288.449 88.1547 289.998V294.17H86.8807V286.498H88.1547V287.744ZM93.6574 287.548V292.07C93.6574 292.443 93.7367 292.709 93.8954 292.868C94.0541 293.017 94.3294 293.092 94.7214 293.092H95.6594V294.17H94.5114C93.8021 294.17 93.2701 294.007 92.9154 293.68C92.5607 293.353 92.3834 292.817 92.3834 292.07V287.548H91.3894V286.498H92.3834V284.566H93.6574V286.498H95.6594V287.548H93.6574ZM104.203 290.04C104.203 290.283 104.189 290.539 104.161 290.81H98.029C98.0757 291.566 98.3323 292.159 98.799 292.588C99.275 293.008 99.849 293.218 100.521 293.218C101.072 293.218 101.529 293.092 101.893 292.84C102.266 292.579 102.528 292.233 102.677 291.804H104.049C103.844 292.541 103.433 293.143 102.817 293.61C102.201 294.067 101.436 294.296 100.521 294.296C99.793 294.296 99.1397 294.133 98.561 293.806C97.9917 293.479 97.5437 293.017 97.217 292.42C96.8903 291.813 96.727 291.113 96.727 290.32C96.727 289.527 96.8857 288.831 97.203 288.234C97.5203 287.637 97.9637 287.179 98.533 286.862C99.1117 286.535 99.7743 286.372 100.521 286.372C101.249 286.372 101.893 286.531 102.453 286.848C103.013 287.165 103.442 287.604 103.741 288.164C104.049 288.715 104.203 289.34 104.203 290.04ZM102.887 289.774C102.887 289.289 102.78 288.873 102.565 288.528C102.35 288.173 102.056 287.907 101.683 287.73C101.319 287.543 100.913 287.45 100.465 287.45C99.821 287.45 99.2703 287.655 98.813 288.066C98.365 288.477 98.1083 289.046 98.043 289.774H102.887ZM105.409 290.306C105.409 289.522 105.567 288.836 105.885 288.248C106.202 287.651 106.636 287.189 107.187 286.862C107.747 286.535 108.372 286.372 109.063 286.372C109.66 286.372 110.215 286.512 110.729 286.792C111.242 287.063 111.634 287.422 111.905 287.87V283.81H113.193V294.17H111.905V292.728C111.653 293.185 111.279 293.563 110.785 293.862C110.29 294.151 109.711 294.296 109.049 294.296C108.367 294.296 107.747 294.128 107.187 293.792C106.636 293.456 106.202 292.985 105.885 292.378C105.567 291.771 105.409 291.081 105.409 290.306ZM111.905 290.32C111.905 289.741 111.788 289.237 111.555 288.808C111.321 288.379 111.004 288.052 110.603 287.828C110.211 287.595 109.777 287.478 109.301 287.478C108.825 287.478 108.391 287.59 107.999 287.814C107.607 288.038 107.294 288.365 107.061 288.794C106.827 289.223 106.711 289.727 106.711 290.306C106.711 290.894 106.827 291.407 107.061 291.846C107.294 292.275 107.607 292.607 107.999 292.84C108.391 293.064 108.825 293.176 109.301 293.176C109.777 293.176 110.211 293.064 110.603 292.84C111.004 292.607 111.321 292.275 111.555 291.846C111.788 291.407 111.905 290.899 111.905 290.32ZM120.352 287.926C120.613 287.469 120.996 287.095 121.5 286.806C122.004 286.517 122.578 286.372 123.222 286.372C123.913 286.372 124.533 286.535 125.084 286.862C125.635 287.189 126.069 287.651 126.386 288.248C126.703 288.836 126.862 289.522 126.862 290.306C126.862 291.081 126.703 291.771 126.386 292.378C126.069 292.985 125.63 293.456 125.07 293.792C124.519 294.128 123.903 294.296 123.222 294.296C122.559 294.296 121.976 294.151 121.472 293.862C120.977 293.573 120.604 293.204 120.352 292.756V294.17H119.078V283.81H120.352V287.926ZM125.56 290.306C125.56 289.727 125.443 289.223 125.21 288.794C124.977 288.365 124.659 288.038 124.258 287.814C123.866 287.59 123.432 287.478 122.956 287.478C122.489 287.478 122.055 287.595 121.654 287.828C121.262 288.052 120.945 288.383 120.702 288.822C120.469 289.251 120.352 289.751 120.352 290.32C120.352 290.899 120.469 291.407 120.702 291.846C120.945 292.275 121.262 292.607 121.654 292.84C122.055 293.064 122.489 293.176 122.956 293.176C123.432 293.176 123.866 293.064 124.258 292.84C124.659 292.607 124.977 292.275 125.21 291.846C125.443 291.407 125.56 290.894 125.56 290.306ZM135.147 286.498L130.527 297.782H129.211L130.723 294.086L127.629 286.498H129.043L131.451 292.714L133.831 286.498H135.147ZM139.684 290.32C139.684 289.527 139.843 288.836 140.16 288.248C140.477 287.651 140.916 287.189 141.476 286.862C142.045 286.535 142.694 286.372 143.422 286.372C144.365 286.372 145.139 286.601 145.746 287.058C146.362 287.515 146.768 288.15 146.964 288.962H145.592C145.461 288.495 145.205 288.127 144.822 287.856C144.449 287.585 143.982 287.45 143.422 287.45C142.694 287.45 142.106 287.702 141.658 288.206C141.21 288.701 140.986 289.405 140.986 290.32C140.986 291.244 141.21 291.958 141.658 292.462C142.106 292.966 142.694 293.218 143.422 293.218C143.982 293.218 144.449 293.087 144.822 292.826C145.195 292.565 145.452 292.191 145.592 291.706H146.964C146.759 292.49 146.348 293.12 145.732 293.596C145.116 294.063 144.346 294.296 143.422 294.296C142.694 294.296 142.045 294.133 141.476 293.806C140.916 293.479 140.477 293.017 140.16 292.42C139.843 291.823 139.684 291.123 139.684 290.32ZM149.938 287.744C150.162 287.305 150.479 286.965 150.89 286.722C151.31 286.479 151.819 286.358 152.416 286.358V287.674H152.08C150.652 287.674 149.938 288.449 149.938 289.998V294.17H148.664V286.498H149.938V287.744ZM160.887 290.04C160.887 290.283 160.873 290.539 160.845 290.81H154.713C154.759 291.566 155.016 292.159 155.483 292.588C155.959 293.008 156.533 293.218 157.205 293.218C157.755 293.218 158.213 293.092 158.577 292.84C158.95 292.579 159.211 292.233 159.361 291.804H160.733C160.527 292.541 160.117 293.143 159.501 293.61C158.885 294.067 158.119 294.296 157.205 294.296C156.477 294.296 155.823 294.133 155.245 293.806C154.675 293.479 154.227 293.017 153.901 292.42C153.574 291.813 153.411 291.113 153.411 290.32C153.411 289.527 153.569 288.831 153.887 288.234C154.204 287.637 154.647 287.179 155.217 286.862C155.795 286.535 156.458 286.372 157.205 286.372C157.933 286.372 158.577 286.531 159.137 286.848C159.697 287.165 160.126 287.604 160.425 288.164C160.733 288.715 160.887 289.34 160.887 290.04ZM159.571 289.774C159.571 289.289 159.463 288.873 159.249 288.528C159.034 288.173 158.74 287.907 158.367 287.73C158.003 287.543 157.597 287.45 157.149 287.45C156.505 287.45 155.954 287.655 155.497 288.066C155.049 288.477 154.792 289.046 154.727 289.774H159.571ZM162.092 290.306C162.092 289.522 162.251 288.836 162.568 288.248C162.886 287.651 163.32 287.189 163.87 286.862C164.43 286.535 165.051 286.372 165.732 286.372C166.404 286.372 166.988 286.517 167.482 286.806C167.977 287.095 168.346 287.459 168.588 287.898V286.498H169.876V294.17H168.588V292.742C168.336 293.19 167.958 293.563 167.454 293.862C166.96 294.151 166.381 294.296 165.718 294.296C165.037 294.296 164.421 294.128 163.87 293.792C163.32 293.456 162.886 292.985 162.568 292.378C162.251 291.771 162.092 291.081 162.092 290.306ZM168.588 290.32C168.588 289.741 168.472 289.237 168.238 288.808C168.005 288.379 167.688 288.052 167.286 287.828C166.894 287.595 166.46 287.478 165.984 287.478C165.508 287.478 165.074 287.59 164.682 287.814C164.29 288.038 163.978 288.365 163.744 288.794C163.511 289.223 163.394 289.727 163.394 290.306C163.394 290.894 163.511 291.407 163.744 291.846C163.978 292.275 164.29 292.607 164.682 292.84C165.074 293.064 165.508 293.176 165.984 293.176C166.46 293.176 166.894 293.064 167.286 292.84C167.688 292.607 168.005 292.275 168.238 291.846C168.472 291.407 168.588 290.899 168.588 290.32ZM173.583 287.548V292.07C173.583 292.443 173.663 292.709 173.821 292.868C173.98 293.017 174.255 293.092 174.647 293.092H175.585V294.17H174.437C173.728 294.17 173.196 294.007 172.841 293.68C172.487 293.353 172.309 292.817 172.309 292.07V287.548H171.315V286.498H172.309V284.566H173.583V286.498H175.585V287.548H173.583ZM177.787 285.252C177.544 285.252 177.339 285.168 177.171 285C177.003 284.832 176.919 284.627 176.919 284.384C176.919 284.141 177.003 283.936 177.171 283.768C177.339 283.6 177.544 283.516 177.787 283.516C178.02 283.516 178.216 283.6 178.375 283.768C178.543 283.936 178.627 284.141 178.627 284.384C178.627 284.627 178.543 284.832 178.375 285C178.216 285.168 178.02 285.252 177.787 285.252ZM178.403 286.498V294.17H177.129V286.498H178.403ZM184.312 286.358C185.245 286.358 186.001 286.643 186.58 287.212C187.159 287.772 187.448 288.584 187.448 289.648V294.17H186.188V289.83C186.188 289.065 185.997 288.481 185.614 288.08C185.231 287.669 184.709 287.464 184.046 287.464C183.374 287.464 182.837 287.674 182.436 288.094C182.044 288.514 181.848 289.125 181.848 289.928V294.17H180.574V286.498H181.848V287.59C182.1 287.198 182.441 286.895 182.87 286.68C183.309 286.465 183.789 286.358 184.312 286.358ZM192.693 286.372C193.356 286.372 193.935 286.517 194.429 286.806C194.933 287.095 195.307 287.459 195.549 287.898V286.498H196.837V294.338C196.837 295.038 196.688 295.659 196.389 296.2C196.091 296.751 195.661 297.18 195.101 297.488C194.551 297.796 193.907 297.95 193.169 297.95C192.161 297.95 191.321 297.712 190.649 297.236C189.977 296.76 189.581 296.111 189.459 295.29H190.719C190.859 295.757 191.149 296.13 191.587 296.41C192.026 296.699 192.553 296.844 193.169 296.844C193.869 296.844 194.439 296.625 194.877 296.186C195.325 295.747 195.549 295.131 195.549 294.338V292.728C195.297 293.176 194.924 293.549 194.429 293.848C193.935 294.147 193.356 294.296 192.693 294.296C192.012 294.296 191.391 294.128 190.831 293.792C190.281 293.456 189.847 292.985 189.529 292.378C189.212 291.771 189.053 291.081 189.053 290.306C189.053 289.522 189.212 288.836 189.529 288.248C189.847 287.651 190.281 287.189 190.831 286.862C191.391 286.535 192.012 286.372 192.693 286.372ZM195.549 290.32C195.549 289.741 195.433 289.237 195.199 288.808C194.966 288.379 194.649 288.052 194.247 287.828C193.855 287.595 193.421 287.478 192.945 287.478C192.469 287.478 192.035 287.59 191.643 287.814C191.251 288.038 190.939 288.365 190.705 288.794C190.472 289.223 190.355 289.727 190.355 290.306C190.355 290.894 190.472 291.407 190.705 291.846C190.939 292.275 191.251 292.607 191.643 292.84C192.035 293.064 192.469 293.176 192.945 293.176C193.421 293.176 193.855 293.064 194.247 292.84C194.649 292.607 194.966 292.275 195.199 291.846C195.433 291.407 195.549 290.899 195.549 290.32ZM204.277 287.548V292.07C204.277 292.443 204.356 292.709 204.515 292.868C204.673 293.017 204.949 293.092 205.341 293.092H206.279V294.17H205.131C204.421 294.17 203.889 294.007 203.535 293.68C203.18 293.353 203.003 292.817 203.003 292.07V287.548H202.009V286.498H203.003V284.566H204.277V286.498H206.279V287.548H204.277ZM207.346 290.306C207.346 289.522 207.505 288.836 207.822 288.248C208.139 287.651 208.573 287.189 209.124 286.862C209.684 286.535 210.305 286.372 210.986 286.372C211.658 286.372 212.241 286.517 212.736 286.806C213.231 287.095 213.599 287.459 213.842 287.898V286.498H215.13V294.17H213.842V292.742C213.59 293.19 213.212 293.563 212.708 293.862C212.213 294.151 211.635 294.296 210.972 294.296C210.291 294.296 209.675 294.128 209.124 293.792C208.573 293.456 208.139 292.985 207.822 292.378C207.505 291.771 207.346 291.081 207.346 290.306ZM213.842 290.32C213.842 289.741 213.725 289.237 213.492 288.808C213.259 288.379 212.941 288.052 212.54 287.828C212.148 287.595 211.714 287.478 211.238 287.478C210.762 287.478 210.328 287.59 209.936 287.814C209.544 288.038 209.231 288.365 208.998 288.794C208.765 289.223 208.648 289.727 208.648 290.306C208.648 290.894 208.765 291.407 208.998 291.846C209.231 292.275 209.544 292.607 209.936 292.84C210.328 293.064 210.762 293.176 211.238 293.176C211.714 293.176 212.148 293.064 212.54 292.84C212.941 292.607 213.259 292.275 213.492 291.846C213.725 291.407 213.842 290.899 213.842 290.32ZM219.999 294.296C219.411 294.296 218.884 294.198 218.417 294.002C217.95 293.797 217.582 293.517 217.311 293.162C217.04 292.798 216.891 292.383 216.863 291.916H218.179C218.216 292.299 218.394 292.611 218.711 292.854C219.038 293.097 219.462 293.218 219.985 293.218C220.47 293.218 220.853 293.111 221.133 292.896C221.413 292.681 221.553 292.411 221.553 292.084C221.553 291.748 221.404 291.501 221.105 291.342C220.806 291.174 220.344 291.011 219.719 290.852C219.15 290.703 218.683 290.553 218.319 290.404C217.964 290.245 217.656 290.017 217.395 289.718C217.143 289.41 217.017 289.009 217.017 288.514C217.017 288.122 217.134 287.763 217.367 287.436C217.6 287.109 217.932 286.853 218.361 286.666C218.79 286.47 219.28 286.372 219.831 286.372C220.68 286.372 221.366 286.587 221.889 287.016C222.412 287.445 222.692 288.033 222.729 288.78H221.455C221.427 288.379 221.264 288.057 220.965 287.814C220.676 287.571 220.284 287.45 219.789 287.45C219.332 287.45 218.968 287.548 218.697 287.744C218.426 287.94 218.291 288.197 218.291 288.514C218.291 288.766 218.37 288.976 218.529 289.144C218.697 289.303 218.902 289.433 219.145 289.536C219.397 289.629 219.742 289.737 220.181 289.858C220.732 290.007 221.18 290.157 221.525 290.306C221.87 290.446 222.164 290.661 222.407 290.95C222.659 291.239 222.79 291.617 222.799 292.084C222.799 292.504 222.682 292.882 222.449 293.218C222.216 293.554 221.884 293.82 221.455 294.016C221.035 294.203 220.55 294.296 219.999 294.296ZM228.882 294.17L225.872 290.782V294.17H224.598V283.81H225.872V289.9L228.826 286.498H230.604L226.992 290.32L230.618 294.17H228.882Z" fill="black"/>
<defs>
<clipPath id="clip0_1088_13294">
<rect width="187" height="182.535" fill="white" transform="translate(41 12.6348)"/>
</clipPath>
</defs>
</svg>
